<?xml version="1.0" encoding="UTF-8"?>
<svg id="Layer_1" data-name="Layer 1" xmlns="http://www.w3.org/2000/svg" viewBox="0 0 1024 1024">
  <defs>
    <style>
      .cls-1 {
        fill: #ff5a00;
      }

      .cls-2 {
        fill: #fff;
      }
    </style>
  </defs>
  <rect class="cls-1" width="1024" height="1024"/>
  <path class="cls-2" d="M398.09,433.52c-3.63,2.32-13.08-9.83-16.06-12.22-23.19-18.6-55.76-25.38-84.14-15.09-3.9,1.41-15.57,8.63-18.03,8.39-2.55-.25-14.16-9.42-17.9-11.47-93.97-51.58-184.53,5.32-177.56,112.28,3.35,51.42,59.44,102.04,87.6,142.8,33.37,48.3,22.21,71.57,26.33,125.99,1.78,23.55,22.43,48.34,46.72,50.56,38.22,3.5,86.07-.45,125.55-.11,123.07,1.08,249.7,5.37,372.37,1.28,32.28-1.08,44.18,5.95,67.29-21.03,24.35-28.44,12.73-59.3,15.34-93.46,5.84-76.27,107.82-128.03,113.89-207.39,7.64-99.88-78.34-159.03-169.4-115.64-4.92,2.35-23.7,14.98-25.86,15.19-2.67.25-18.4-8.02-23.86-9.35-28.32-6.9-54.11-1.23-77.16,15.77-2.98,2.2-14.87,14.53-17.33,13.46-5.44-2.37-6.03-14.87-4.51-19.95,2.3-7.71,24.79-26.12,31.38-33.9,21.36-25.19,27.16-59.4-.63-82.5-16.13-13.4-34.11-14.15-54.2-11.72-5.45-51.33-56.23-122.79-114.11-91.37-31.99,17.36-55.37,55.21-57.58,91.54-44.41-8.83-86.34,23.33-70.08,70.73,6.26,18.25,21.53,28.28,33.63,41.89,6.45,7.26,15.34,15.22,13.13,25.97-.29,1.4-3.96,8.81-4.8,9.34Z"/>
  <g>
    <path class="cls-1" d="M487.31,621c2.56-21.57,22.43-44.53,43.25-50.19,37.56-10.21,74.23,12.16,90.57,45.65,2.78,5.71,8.22,25.91,10.16,28.24,1.7,2.05,17.89,1.99,19.32.04-4.82-35.56-25.22-71.93-62.2-81.33-13.07-3.32-21.7-3.21-34.89-1.63-5.34.64-8.22,3.63-15.39,1.99-10.08-2.31-8.41-16.3-12.41-18.3-5.59-2.8-19.9,2.58-26.9.64,7.55-10.94,24.08-20.86,36.76-25.3,81.15-28.43,155.84,46.18,161.65,123.86l46.47-.23c1.49-.46,8.2-8.95,8.53-10.67,2.56-13.26-1.08-36.35-.03-51.23,1.58-22.37,9.28-19.8,29.5-19.78-.1-12.14-.43-29.98,16.64-26.89l-1.24,101.81c-1.97,24.99-25.11,48.17-49.26,53.14-93.91-4.12-192.17,5.25-285.57-.01-6.05-.34-11.63-2.37-17.65-2.71-14.3,34.52-53.08,63.39-91.03,64.15-1.44.03-8.7.43-5.81-2.6,1.52-1.59,20.21-6.53,20.53-8.39.65-3.78-10.01-12.2-11.27-16.9-4.06-15.17,17.74-22.16,27.17-29.8,14.25-11.55,19.93-21.73,21.21-40.23,1.82-26.16-2.98-56.2,1.3-81.89,2.26-13.58,16.6-6.9,26.81-8.39.72-12.16,1.1-30.85,17.92-28.17v99.2c0,1.31,10.05,10.88,13.44,10.88h22.4c.67-7.95-.92-17.2,0-24.96ZM583.2,644.56c2.83-4.14-10.76-21.37-14.61-24.19-10.01-7.35-34.12-9.56-35.26,6.98-.82,11.82,5.93,17.67,17.3,18.66,4.33.38,31.29.44,32.58-1.45Z"/>
    <path class="cls-1" d="M359.31,523.08v108.16c0,2.63-3.03,13.21-4.13,16.35-4.73,13.49-20,35.26-36.01,34.12-8.65-.62-21.43-10.06-25.78-10.06-3.16,0-12.24,6.29-16.57,7.66-38.43,12.15-55.38-39.44-50.31-69.51,10.55-62.59,74.67-90.84,132.8-86.72ZM309.08,574.49c-8.87.99-27.77,16.23-32.24,24.19-6.06,10.79-9.8,32.66-.07,42.15,11.63,11.34,29.42,6.54,36.16-7.34-1.08-16.13,3.19-33.76,1.57-49.59-.4-3.91-.67-9.94-5.42-9.41Z"/>
    <path class="cls-1" d="M342.23,500.88c-21.64,22.57-59.63-12.69-34.75-36.67,22.12-21.31,59.24,11.13,34.75,36.67Z"/>
    <path class="cls-1" d="M734.01,710.26c22.04-4.08,39.2,17.22,27.26,37.49-13.87,23.53-50.5,9.73-45.8-17.65,1.43-8.34,10.07-18.27,18.55-19.84Z"/>
    <path class="cls-1" d="M264.24,458.09c22.06-4.54,40.36,18.38,27.02,38.54-17.76,26.82-60.33-.22-40.53-29.01,2.68-3.9,8.9-8.58,13.51-9.53Z"/>
    <path class="cls-1" d="M713.95,505.07c-.29-.46-.59-3.61.69-3.87,4.21-1.91,32.66-12.58,33.64-14.12,1.57-2.47-3.12-9.77-3.57-13.4-2.79-22.38,33.71-40.2,33.08-15.38-.22,8.82-7.66,15.74-8.69,20.93-.74,3.7,2.82,6.02,2.48,11.19-.12,1.82-2.79,9.44-3.89,10.31-3.28,2.58-8.38-8.53-11.98-8.19-2.08.2-9.81,6.35-12.8,7.73-4.92,2.26-25.63,10.13-28.95,4.8ZM763.75,473.14c1.91-1.28.67-16.36-6.86-13.96-5.49,1.75,2.95,16.57,6.86,13.96Z"/>
  </g>
</svg>