<svg id="Bookmark" enable-background="new 0 0 64 64" height="512" viewBox="0 0 64 64" width="512" xmlns="http://www.w3.org/2000/svg"><path d="m44.57881 0h-25.15762c-5.89347 0-10.67606 4.78259-10.67606 10.676v48.9371c0 3.62042 4.14491 5.67746 7.02476 3.48671l16.23011-12.33197 16.23011 12.33197c2.87985 2.19075 7.02476.13371 7.02476-3.48671v-48.9371c0-5.89341-4.78259-10.676-10.67606-10.676zm.1543 24.95189-3.48671 3.82614c-.34966.38055-.51426.88451-.45255 1.39878l.57597 5.14261c.2366 2.13934-1.95415 3.73354-3.91867 2.83873l-4.71065-2.12905c-.47308-.21601-1.00793-.21601-1.48101 0l-4.71065 2.12905c-1.96451.89481-4.15527-.69939-3.91867-2.83873l.57597-5.14261c.06171-.51426-.10289-1.01823-.45255-1.39878l-3.48671-3.82614c-1.46048-1.5942-.61709-4.1655 1.50167-4.60776l5.06031-1.03882c.50397-.10283.93593-.42167 1.19306-.86392l2.56107-4.49464c1.05935-1.88221 3.77466-1.88221 4.83401 0l2.56107 4.49464c.25713.44226.68909.7611 1.19306.86392l5.06031 1.03882c2.11876.44226 2.96215 3.01357 1.50167 4.60776z"/></svg>